
<svg width="217" height="268" viewBox="0 0 217 268" fill="none" xmlns="http://www.w3.org/2000/svg">
<path d="M37.824 17.52H32.96L32.064 20H30.528L34.56 8.912H36.24L40.256 20H38.72L37.824 17.52ZM37.408 16.336L35.392 10.704L33.376 16.336H37.408ZM43.4693 8.16V20H42.0133V8.16H43.4693ZM47.4068 8.16V20H45.9508V8.16H47.4068ZM55.6099 8.16V20H54.1539V8.16H55.6099ZM58.8434 9.808C58.566 9.808 58.3314 9.712 58.1394 9.52C57.9474 9.328 57.8514 9.09333 57.8514 8.816C57.8514 8.53867 57.9474 8.304 58.1394 8.112C58.3314 7.92 58.566 7.824 58.8434 7.824C59.11 7.824 59.334 7.92 59.5154 8.112C59.7074 8.304 59.8034 8.53867 59.8034 8.816C59.8034 9.09333 59.7074 9.328 59.5154 9.52C59.334 9.712 59.11 9.808 58.8434 9.808ZM59.5474 11.232V20H58.0914V11.232H59.5474ZM72.5729 11.072C73.2555 11.072 73.8635 11.216 74.3969 11.504C74.9302 11.7813 75.3515 12.2027 75.6609 12.768C75.9702 13.3333 76.1249 14.0213 76.1249 14.832V20H74.6849V15.04C74.6849 14.1653 74.4662 13.4987 74.0289 13.04C73.6022 12.5707 73.0209 12.336 72.2849 12.336C71.5275 12.336 70.9249 12.5813 70.4769 13.072C70.0289 13.552 69.8049 14.2507 69.8049 15.168V20H68.3649V15.04C68.3649 14.1653 68.1462 13.4987 67.7089 13.04C67.2822 12.5707 66.7009 12.336 65.9649 12.336C65.2075 12.336 64.6049 12.5813 64.1569 13.072C63.7089 13.552 63.4849 14.2507 63.4849 15.168V20H62.0289V11.232H63.4849V12.496C63.7729 12.0373 64.1569 11.6853 64.6369 11.44C65.1275 11.1947 65.6662 11.072 66.2529 11.072C66.9889 11.072 67.6395 11.2373 68.2049 11.568C68.7702 11.8987 69.1915 12.384 69.4689 13.024C69.7142 12.4053 70.1195 11.9253 70.6849 11.584C71.2502 11.2427 71.8795 11.072 72.5729 11.072ZM79.2653 9.808C78.9879 9.808 78.7533 9.712 78.5613 9.52C78.3693 9.328 78.2733 9.09333 78.2733 8.816C78.2733 8.53867 78.3693 8.304 78.5613 8.112C78.7533 7.92 78.9879 7.824 79.2653 7.824C79.5319 7.824 79.7559 7.92 79.9373 8.112C80.1293 8.304 80.2253 8.53867 80.2253 8.816C80.2253 9.09333 80.1293 9.328 79.9373 9.52C79.7559 9.712 79.5319 9.808 79.2653 9.808ZM79.9693 11.232V20H78.5133V11.232H79.9693ZM84.2268 12.432V17.6C84.2268 18.0267 84.3174 18.3307 84.4988 18.512C84.6801 18.6827 84.9948 18.768 85.4427 18.768H86.5148V20H85.2028C84.3921 20 83.7841 19.8133 83.3788 19.44C82.9734 19.0667 82.7708 18.4533 82.7708 17.6V12.432H81.6348V11.232H82.7708V9.024H84.2268V11.232H86.5148V12.432H84.2268ZM96.2789 15.28C96.2789 15.5573 96.2629 15.8507 96.2309 16.16H89.2229C89.2762 17.024 89.5695 17.7013 90.1029 18.192C90.6469 18.672 91.3029 18.912 92.0709 18.912C92.7002 18.912 93.2229 18.768 93.6389 18.48C94.0655 18.1813 94.3642 17.7867 94.5349 17.296H96.1029C95.8682 18.1387 95.3989 18.8267 94.6949 19.36C93.9909 19.8827 93.1162 20.144 92.0709 20.144C91.2389 20.144 90.4922 19.9573 89.8309 19.584C89.1802 19.2107 88.6682 18.6827 88.2949 18C87.9215 17.3067 87.7349 16.5067 87.7349 15.6C87.7349 14.6933 87.9162 13.8987 88.2789 13.216C88.6415 12.5333 89.1482 12.0107 89.7989 11.648C90.4602 11.2747 91.2175 11.088 92.0709 11.088C92.9029 11.088 93.6389 11.2693 94.2789 11.632C94.9189 11.9947 95.4095 12.496 95.7509 13.136C96.1029 13.7653 96.2789 14.48 96.2789 15.28ZM94.7749 14.976C94.7749 14.4213 94.6522 13.9467 94.4069 13.552C94.1615 13.1467 93.8255 12.8427 93.3989 12.64C92.9829 12.4267 92.5189 12.32 92.0069 12.32C91.2709 12.32 90.6415 12.5547 90.1189 13.024C89.6069 13.4933 89.3135 14.144 89.2389 14.976H94.7749ZM97.6568 15.584C97.6568 14.688 97.8381 13.904 98.2008 13.232C98.5634 12.5493 99.0594 12.0213 99.6888 11.648C100.329 11.2747 101.043 11.088 101.833 11.088C102.515 11.088 103.15 11.248 103.737 11.568C104.323 11.8773 104.771 12.288 105.081 12.8V8.16H106.553V20H105.081V18.352C104.793 18.8747 104.366 19.3067 103.801 19.648C103.235 19.9787 102.574 20.144 101.817 20.144C101.038 20.144 100.329 19.952 99.6888 19.568C99.0594 19.184 98.5634 18.6453 98.2008 17.952C97.8381 17.2587 97.6568 16.4693 97.6568 15.584ZM105.081 15.6C105.081 14.9387 104.947 14.3627 104.681 13.872C104.414 13.3813 104.051 13.008 103.593 12.752C103.145 12.4853 102.649 12.352 102.105 12.352C101.561 12.352 101.065 12.48 100.617 12.736C100.169 12.992 99.8114 13.3653 99.5448 13.856C99.2781 14.3467 99.1448 14.9227 99.1448 15.584C99.1448 16.256 99.2781 16.8427 99.5448 17.344C99.8114 17.8347 100.169 18.2133 100.617 18.48C101.065 18.736 101.561 18.864 102.105 18.864C102.649 18.864 103.145 18.736 103.593 18.48C104.051 18.2133 104.414 17.8347 104.681 17.344C104.947 16.8427 105.081 16.2613 105.081 15.6ZM114.735 8.16V20H113.279V8.16H114.735ZM117.968 9.808C117.691 9.808 117.456 9.712 117.264 9.52C117.072 9.328 116.976 9.09333 116.976 8.816C116.976 8.53867 117.072 8.304 117.264 8.112C117.456 7.92 117.691 7.824 117.968 7.824C118.235 7.824 118.459 7.92 118.64 8.112C118.832 8.304 118.928 8.53867 118.928 8.816C118.928 9.09333 118.832 9.328 118.64 9.52C118.459 9.712 118.235 9.808 117.968 9.808ZM118.672 11.232V20H117.216V11.232H118.672ZM125.426 11.072C126.493 11.072 127.357 11.3973 128.018 12.048C128.679 12.688 129.01 13.616 129.01 14.832V20H127.57V15.04C127.57 14.1653 127.351 13.4987 126.914 13.04C126.477 12.5707 125.879 12.336 125.122 12.336C124.354 12.336 123.741 12.576 123.282 13.056C122.834 13.536 122.61 14.2347 122.61 15.152V20H121.154V11.232H122.61V12.48C122.898 12.032 123.287 11.6853 123.778 11.44C124.279 11.1947 124.829 11.072 125.426 11.072ZM136.284 20L132.844 16.128V20H131.388V8.16H132.844V15.12L136.22 11.232H138.252L134.124 15.6L138.268 20H136.284ZM142.727 20.144C142.055 20.144 141.452 20.032 140.919 19.808C140.385 19.5733 139.964 19.2533 139.655 18.848C139.345 18.432 139.175 17.9573 139.143 17.424H140.647C140.689 17.8613 140.892 18.2187 141.255 18.496C141.628 18.7733 142.113 18.912 142.711 18.912C143.265 18.912 143.703 18.7893 144.023 18.544C144.343 18.2987 144.503 17.9893 144.503 17.616C144.503 17.232 144.332 16.9493 143.991 16.768C143.649 16.576 143.121 16.3893 142.407 16.208C141.756 16.0373 141.223 15.8667 140.807 15.696C140.401 15.5147 140.049 15.2533 139.751 14.912C139.463 14.56 139.319 14.1013 139.319 13.536C139.319 13.088 139.452 12.6773 139.719 12.304C139.985 11.9307 140.364 11.6373 140.855 11.424C141.345 11.2 141.905 11.088 142.535 11.088C143.505 11.088 144.289 11.3333 144.887 11.824C145.484 12.3147 145.804 12.9867 145.847 13.84H144.391C144.359 13.3813 144.172 13.0133 143.831 12.736C143.5 12.4587 143.052 12.32 142.487 12.32C141.964 12.32 141.548 12.432 141.239 12.656C140.929 12.88 140.775 13.1733 140.775 13.536C140.775 13.824 140.865 14.064 141.047 14.256C141.239 14.4373 141.473 14.5867 141.751 14.704C142.039 14.8107 142.433 14.9333 142.935 15.072C143.564 15.2427 144.076 15.4133 144.471 15.584C144.865 15.744 145.201 15.9893 145.479 16.32C145.767 16.6507 145.916 17.0827 145.927 17.616C145.927 18.096 145.793 18.528 145.527 18.912C145.26 19.296 144.881 19.6 144.391 19.824C143.911 20.0373 143.356 20.144 142.727 20.144Z" fill="#282938"/>
<path d="M13.7767 14.2371C14.5942 14.8519 14.5701 16.0868 13.729 16.6691L3.85392 23.5069C2.85908 24.1958 1.5 23.4838 1.5 22.2737L1.5 8.00968C1.5 6.77272 2.91294 6.06739 3.90155 6.81084L13.7767 14.2371Z" fill="#97DAAD" stroke="url(#paint0_linear_239_97)" stroke-width="3"/>
<path d="M36.288 68.112C35.2533 68.112 34.3093 67.872 33.456 67.392C32.6027 66.9013 31.9253 66.224 31.424 65.36C30.9333 64.4853 30.688 63.504 30.688 62.416C30.688 61.328 30.9333 60.352 31.424 59.488C31.9253 58.6133 32.6027 57.936 33.456 57.456C34.3093 56.9653 35.2533 56.72 36.288 56.72C37.3333 56.72 38.2827 56.9653 39.136 57.456C39.9893 57.936 40.6613 58.608 41.152 59.472C41.6427 60.336 41.888 61.3173 41.888 62.416C41.888 63.5147 41.6427 64.496 41.152 65.36C40.6613 66.224 39.9893 66.9013 39.136 67.392C38.2827 67.872 37.3333 68.112 36.288 68.112ZM36.288 66.848C37.0667 66.848 37.7653 66.6667 38.384 66.304C39.0133 65.9413 39.504 65.424 39.856 64.752C40.2187 64.08 40.4 63.3013 40.4 62.416C40.4 61.52 40.2187 60.7413 39.856 60.08C39.504 59.408 39.0187 58.8907 38.4 58.528C37.7813 58.1653 37.0773 57.984 36.288 57.984C35.4987 57.984 34.7947 58.1653 34.176 58.528C33.5573 58.8907 33.0667 59.408 32.704 60.08C32.352 60.7413 32.176 61.52 32.176 62.416C32.176 63.3013 32.352 64.08 32.704 64.752C33.0667 65.424 33.5573 65.9413 34.176 66.304C34.8053 66.6667 35.5093 66.848 36.288 66.848ZM55.4901 59.232L52.7541 68H51.2501L49.1381 61.04L47.0261 68H45.5221L42.7701 59.232H44.2581L46.2741 66.592L48.4501 59.232H49.9381L52.0661 66.608L54.0501 59.232H55.4901ZM61.2071 59.072C62.2738 59.072 63.1378 59.3973 63.7991 60.048C64.4605 60.688 64.7911 61.616 64.7911 62.832V68H63.3511V63.04C63.3511 62.1653 63.1325 61.4987 62.6951 61.04C62.2578 60.5707 61.6605 60.336 60.9031 60.336C60.1351 60.336 59.5218 60.576 59.0631 61.056C58.6151 61.536 58.3911 62.2347 58.3911 63.152V68H56.9351V59.232H58.3911V60.48C58.6791 60.032 59.0685 59.6853 59.5591 59.44C60.0605 59.1947 60.6098 59.072 61.2071 59.072ZM70.8911 63.584C70.8911 62.688 71.0725 61.904 71.4351 61.232C71.7978 60.5493 72.2938 60.0213 72.9231 59.648C73.5631 59.2747 74.2725 59.088 75.0511 59.088C75.8191 59.088 76.4858 59.2533 77.0511 59.584C77.6165 59.9147 78.0378 60.3307 78.3151 60.832V59.232H79.7871V68H78.3151V66.368C78.0271 66.88 77.5951 67.3067 77.0191 67.648C76.4538 67.9787 75.7925 68.144 75.0351 68.144C74.2565 68.144 73.5525 67.952 72.9231 67.568C72.2938 67.184 71.7978 66.6453 71.4351 65.952C71.0725 65.2587 70.8911 64.4693 70.8911 63.584ZM78.3151 63.6C78.3151 62.9387 78.1818 62.3627 77.9151 61.872C77.6485 61.3813 77.2858 61.008 76.8271 60.752C76.3791 60.4853 75.8831 60.352 75.3391 60.352C74.7951 60.352 74.2991 60.48 73.8511 60.736C73.4031 60.992 73.0458 61.3653 72.7791 61.856C72.5125 62.3467 72.3791 62.9227 72.3791 63.584C72.3791 64.256 72.5125 64.8427 72.7791 65.344C73.0458 65.8347 73.4031 66.2133 73.8511 66.48C74.2991 66.736 74.7951 66.864 75.3391 66.864C75.8831 66.864 76.3791 66.736 76.8271 66.48C77.2858 66.2133 77.6485 65.8347 77.9151 65.344C78.1818 64.8427 78.3151 64.2613 78.3151 63.6ZM86.5196 59.072C87.5863 59.072 88.4503 59.3973 89.1116 60.048C89.773 60.688 90.1036 61.616 90.1036 62.832V68H88.6636V63.04C88.6636 62.1653 88.445 61.4987 88.0076 61.04C87.5703 60.5707 86.973 60.336 86.2156 60.336C85.4476 60.336 84.8343 60.576 84.3756 61.056C83.9276 61.536 83.7036 62.2347 83.7036 63.152V68H82.2476V59.232H83.7036V60.48C83.9916 60.032 84.381 59.6853 84.8716 59.44C85.373 59.1947 85.9223 59.072 86.5196 59.072ZM91.938 63.584C91.938 62.688 92.1193 61.904 92.482 61.232C92.8447 60.5493 93.3407 60.0213 93.97 59.648C94.61 59.2747 95.3193 59.088 96.098 59.088C96.866 59.088 97.5327 59.2533 98.098 59.584C98.6633 59.9147 99.0847 60.3307 99.362 60.832V59.232H100.834V68H99.362V66.368C99.074 66.88 98.642 67.3067 98.066 67.648C97.5007 67.9787 96.8393 68.144 96.082 68.144C95.3033 68.144 94.5993 67.952 93.97 67.568C93.3407 67.184 92.8447 66.6453 92.482 65.952C92.1193 65.2587 91.938 64.4693 91.938 63.584ZM99.362 63.6C99.362 62.9387 99.2287 62.3627 98.962 61.872C98.6953 61.3813 98.3327 61.008 97.874 60.752C97.426 60.4853 96.93 60.352 96.386 60.352C95.842 60.352 95.346 60.48 94.898 60.736C94.45 60.992 94.0927 61.3653 93.826 61.856C93.5593 62.3467 93.426 62.9227 93.426 63.584C93.426 64.256 93.5593 64.8427 93.826 65.344C94.0927 65.8347 94.45 66.2133 94.898 66.48C95.346 66.736 95.842 66.864 96.386 66.864C96.93 66.864 97.426 66.736 97.874 66.48C98.3327 66.2133 98.6953 65.8347 98.962 65.344C99.2287 64.8427 99.362 64.2613 99.362 63.6ZM104.751 56.16V68H103.295V56.16H104.751ZM114.784 59.232L109.504 72.128H108L109.728 67.904L106.192 59.232H107.808L110.56 66.336L113.28 59.232H114.784ZM118.024 60.432V65.6C118.024 66.0267 118.114 66.3307 118.296 66.512C118.477 66.6827 118.792 66.768 119.24 66.768H120.312V68H119C118.189 68 117.581 67.8133 117.176 67.44C116.77 67.0667 116.568 66.4533 116.568 65.6V60.432H115.432V59.232H116.568V57.024H118.024V59.232H120.312V60.432H118.024ZM122.828 57.808C122.55 57.808 122.316 57.712 122.124 57.52C121.932 57.328 121.836 57.0933 121.836 56.816C121.836 56.5387 121.932 56.304 122.124 56.112C122.316 55.92 122.55 55.824 122.828 55.824C123.094 55.824 123.318 55.92 123.5 56.112C123.692 56.304 123.788 56.5387 123.788 56.816C123.788 57.0933 123.692 57.328 123.5 57.52C123.318 57.712 123.094 57.808 122.828 57.808ZM123.532 59.232V68H122.076V59.232H123.532ZM125.469 63.6C125.469 62.6933 125.651 61.904 126.013 61.232C126.376 60.5493 126.877 60.0213 127.517 59.648C128.168 59.2747 128.909 59.088 129.741 59.088C130.819 59.088 131.704 59.3493 132.397 59.872C133.101 60.3947 133.565 61.12 133.789 62.048H132.221C132.072 61.5147 131.779 61.0933 131.341 60.784C130.915 60.4747 130.381 60.32 129.741 60.32C128.909 60.32 128.237 60.608 127.725 61.184C127.213 61.7493 126.957 62.5547 126.957 63.6C126.957 64.656 127.213 65.472 127.725 66.048C128.237 66.624 128.909 66.912 129.741 66.912C130.381 66.912 130.915 66.7627 131.341 66.464C131.768 66.1653 132.061 65.7387 132.221 65.184H133.789C133.555 66.08 133.085 66.8 132.381 67.344C131.677 67.8773 130.797 68.144 129.741 68.144C128.909 68.144 128.168 67.9573 127.517 67.584C126.877 67.2107 126.376 66.6827 126.013 66C125.651 65.3173 125.469 64.5173 125.469 63.6ZM138.836 68.144C138.164 68.144 137.561 68.032 137.028 67.808C136.495 67.5733 136.073 67.2533 135.764 66.848C135.455 66.432 135.284 65.9573 135.252 65.424H136.756C136.799 65.8613 137.001 66.2187 137.364 66.496C137.737 66.7733 138.223 66.912 138.82 66.912C139.375 66.912 139.812 66.7893 140.132 66.544C140.452 66.2987 140.612 65.9893 140.612 65.616C140.612 65.232 140.441 64.9493 140.1 64.768C139.759 64.576 139.231 64.3893 138.516 64.208C137.865 64.0373 137.332 63.8667 136.916 63.696C136.511 63.5147 136.159 63.2533 135.86 62.912C135.572 62.56 135.428 62.1013 135.428 61.536C135.428 61.088 135.561 60.6773 135.828 60.304C136.095 59.9307 136.473 59.6373 136.964 59.424C137.455 59.2 138.015 59.088 138.644 59.088C139.615 59.088 140.399 59.3333 140.996 59.824C141.593 60.3147 141.913 60.9867 141.956 61.84H140.5C140.468 61.3813 140.281 61.0133 139.94 60.736C139.609 60.4587 139.161 60.32 138.596 60.32C138.073 60.32 137.657 60.432 137.348 60.656C137.039 60.88 136.884 61.1733 136.884 61.536C136.884 61.824 136.975 62.064 137.156 62.256C137.348 62.4373 137.583 62.5867 137.86 62.704C138.148 62.8107 138.543 62.9333 139.044 63.072C139.673 63.2427 140.185 63.4133 140.58 63.584C140.975 63.744 141.311 63.9893 141.588 64.32C141.876 64.6507 142.025 65.0827 142.036 65.616C142.036 66.096 141.903 66.528 141.636 66.912C141.369 67.296 140.991 67.6 140.5 67.824C140.02 68.0373 139.465 68.144 138.836 68.144ZM149.813 60.848C150.101 60.3467 150.528 59.9307 151.093 59.6C151.669 59.2587 152.336 59.088 153.093 59.088C153.872 59.088 154.576 59.2747 155.205 59.648C155.845 60.0213 156.346 60.5493 156.709 61.232C157.072 61.904 157.253 62.688 157.253 63.584C157.253 64.4693 157.072 65.2587 156.709 65.952C156.346 66.6453 155.845 67.184 155.205 67.568C154.576 67.952 153.872 68.144 153.093 68.144C152.346 68.144 151.685 67.9787 151.109 67.648C150.544 67.3067 150.112 66.8853 149.813 66.384V72.16H148.357V59.232H149.813V60.848ZM155.765 63.584C155.765 62.9227 155.632 62.3467 155.365 61.856C155.098 61.3653 154.736 60.992 154.277 60.736C153.829 60.48 153.333 60.352 152.789 60.352C152.256 60.352 151.76 60.4853 151.301 60.752C150.853 61.008 150.49 61.3867 150.213 61.888C149.946 62.3787 149.813 62.9493 149.813 63.6C149.813 64.2613 149.946 64.8427 150.213 65.344C150.49 65.8347 150.853 66.2133 151.301 66.48C151.76 66.736 152.256 66.864 152.789 66.864C153.333 66.864 153.829 66.736 154.277 66.48C154.736 66.2133 155.098 65.8347 155.365 65.344C155.632 64.8427 155.765 64.256 155.765 63.584ZM160.626 56.16V68H159.17V56.16H160.626ZM162.563 63.584C162.563 62.688 162.744 61.904 163.107 61.232C163.47 60.5493 163.966 60.0213 164.595 59.648C165.235 59.2747 165.944 59.088 166.723 59.088C167.491 59.088 168.158 59.2533 168.723 59.584C169.288 59.9147 169.71 60.3307 169.987 60.832V59.232H171.459V68H169.987V66.368C169.699 66.88 169.267 67.3067 168.691 67.648C168.126 67.9787 167.464 68.144 166.707 68.144C165.928 68.144 165.224 67.952 164.595 67.568C163.966 67.184 163.47 66.6453 163.107 65.952C162.744 65.2587 162.563 64.4693 162.563 63.584ZM169.987 63.6C169.987 62.9387 169.854 62.3627 169.587 61.872C169.32 61.3813 168.958 61.008 168.499 60.752C168.051 60.4853 167.555 60.352 167.011 60.352C166.467 60.352 165.971 60.48 165.523 60.736C165.075 60.992 164.718 61.3653 164.451 61.856C164.184 62.3467 164.051 62.9227 164.051 63.584C164.051 64.256 164.184 64.8427 164.451 65.344C164.718 65.8347 165.075 66.2133 165.523 66.48C165.971 66.736 166.467 66.864 167.011 66.864C167.555 66.864 168.051 66.736 168.499 66.48C168.958 66.2133 169.32 65.8347 169.587 65.344C169.854 64.8427 169.987 64.2613 169.987 63.6ZM175.696 60.432V65.6C175.696 66.0267 175.786 66.3307 175.968 66.512C176.149 66.6827 176.464 66.768 176.911 66.768H177.984V68H176.672C175.861 68 175.253 67.8133 174.848 67.44C174.442 67.0667 174.24 66.4533 174.24 65.6V60.432H173.104V59.232H174.24V57.024H175.696V59.232H177.984V60.432H175.696ZM183.316 60.432H181.476V68H180.02V60.432H178.884V59.232H180.02V58.608C180.02 57.6267 180.27 56.912 180.772 56.464C181.284 56.0053 182.1 55.776 183.22 55.776V56.992C182.58 56.992 182.126 57.12 181.86 57.376C181.604 57.6213 181.476 58.032 181.476 58.608V59.232H183.316V60.432ZM188.837 68.144C188.016 68.144 187.269 67.9573 186.597 67.584C185.936 67.2107 185.413 66.6827 185.029 66C184.656 65.3067 184.469 64.5067 184.469 63.6C184.469 62.704 184.661 61.9147 185.045 61.232C185.44 60.5387 185.973 60.0107 186.645 59.648C187.317 59.2747 188.069 59.088 188.901 59.088C189.733 59.088 190.485 59.2747 191.157 59.648C191.829 60.0107 192.357 60.5333 192.741 61.216C193.136 61.8987 193.333 62.6933 193.333 63.6C193.333 64.5067 193.131 65.3067 192.725 66C192.331 66.6827 191.792 67.2107 191.109 67.584C190.427 67.9573 189.669 68.144 188.837 68.144ZM188.837 66.864C189.36 66.864 189.851 66.7413 190.309 66.496C190.768 66.2507 191.136 65.8827 191.413 65.392C191.701 64.9013 191.845 64.304 191.845 63.6C191.845 62.896 191.707 62.2987 191.429 61.808C191.152 61.3173 190.789 60.9547 190.341 60.72C189.893 60.4747 189.408 60.352 188.885 60.352C188.352 60.352 187.861 60.4747 187.413 60.72C186.976 60.9547 186.624 61.3173 186.357 61.808C186.091 62.2987 185.957 62.896 185.957 63.6C185.957 64.3147 186.085 64.9173 186.341 65.408C186.608 65.8987 186.96 66.2667 187.397 66.512C187.835 66.7467 188.315 66.864 188.837 66.864ZM196.704 60.656C196.96 60.1547 197.322 59.7653 197.792 59.488C198.272 59.2107 198.853 59.072 199.536 59.072V60.576H199.152C197.52 60.576 196.704 61.4613 196.704 63.232V68H195.248V59.232H196.704V60.656ZM211.76 59.072C212.443 59.072 213.051 59.216 213.584 59.504C214.118 59.7813 214.539 60.2027 214.848 60.768C215.158 61.3333 215.312 62.0213 215.312 62.832V68H213.872V63.04C213.872 62.1653 213.654 61.4987 213.216 61.04C212.79 60.5707 212.208 60.336 211.472 60.336C210.715 60.336 210.112 60.5813 209.664 61.072C209.216 61.552 208.992 62.2507 208.992 63.168V68H207.552V63.04C207.552 62.1653 207.334 61.4987 206.896 61.04C206.47 60.5707 205.888 60.336 205.152 60.336C204.395 60.336 203.792 60.5813 203.344 61.072C202.896 61.552 202.672 62.2507 202.672 63.168V68H201.216V59.232H202.672V60.496C202.96 60.0373 203.344 59.6853 203.824 59.44C204.315 59.1947 204.854 59.072 205.44 59.072C206.176 59.072 206.827 59.2373 207.392 59.568C207.958 59.8987 208.379 60.384 208.656 61.024C208.902 60.4053 209.307 59.9253 209.872 59.584C210.438 59.2427 211.067 59.072 211.76 59.072Z" fill="#282938"/>
<path d="M13.7767 62.2371C14.5942 62.8519 14.5701 64.0868 13.729 64.6691L3.85392 71.5069C2.85908 72.1958 1.5 71.4838 1.5 70.2737L1.5 56.0097C1.5 54.7727 2.91294 54.0674 3.90155 54.8108L13.7767 62.2371Z" fill="#97DAAD" stroke="url(#paint1_linear_239_97)" stroke-width="3"/>
<path d="M30.688 110.416C30.688 109.328 30.9333 108.352 31.424 107.488C31.9147 106.613 32.5813 105.931 33.424 105.44C34.2773 104.949 35.2213 104.704 36.256 104.704C37.472 104.704 38.5333 104.997 39.44 105.584C40.3467 106.171 41.008 107.003 41.424 108.08H39.68C39.3707 107.408 38.9227 106.891 38.336 106.528C37.76 106.165 37.0667 105.984 36.256 105.984C35.4773 105.984 34.7787 106.165 34.16 106.528C33.5413 106.891 33.056 107.408 32.704 108.08C32.352 108.741 32.176 109.52 32.176 110.416C32.176 111.301 32.352 112.08 32.704 112.752C33.056 113.413 33.5413 113.925 34.16 114.288C34.7787 114.651 35.4773 114.832 36.256 114.832C37.0667 114.832 37.76 114.656 38.336 114.304C38.9227 113.941 39.3707 113.424 39.68 112.752H41.424C41.008 113.819 40.3467 114.645 39.44 115.232C38.5333 115.808 37.472 116.096 36.256 116.096C35.2213 116.096 34.2773 115.856 33.424 115.376C32.5813 114.885 31.9147 114.208 31.424 113.344C30.9333 112.48 30.688 111.504 30.688 110.416ZM47.9434 107.072C48.6047 107.072 49.202 107.216 49.7354 107.504C50.2687 107.781 50.6847 108.203 50.9834 108.768C51.2927 109.333 51.4474 110.021 51.4474 110.832V116H50.0074V111.04C50.0074 110.165 49.7887 109.499 49.3514 109.04C48.914 108.571 48.3167 108.336 47.5594 108.336C46.7914 108.336 46.178 108.576 45.7194 109.056C45.2714 109.536 45.0474 110.235 45.0474 111.152V116H43.5914V104.16H45.0474V108.48C45.3354 108.032 45.73 107.685 46.2314 107.44C46.7434 107.195 47.314 107.072 47.9434 107.072ZM53.2818 111.584C53.2818 110.688 53.4631 109.904 53.8258 109.232C54.1884 108.549 54.6844 108.021 55.3138 107.648C55.9538 107.275 56.6631 107.088 57.4418 107.088C58.2098 107.088 58.8764 107.253 59.4418 107.584C60.0071 107.915 60.4284 108.331 60.7058 108.832V107.232H62.1778V116H60.7058V114.368C60.4178 114.88 59.9858 115.307 59.4098 115.648C58.8444 115.979 58.1831 116.144 57.4258 116.144C56.6471 116.144 55.9431 115.952 55.3138 115.568C54.6844 115.184 54.1884 114.645 53.8258 113.952C53.4631 113.259 53.2818 112.469 53.2818 111.584ZM60.7058 111.6C60.7058 110.939 60.5724 110.363 60.3058 109.872C60.0391 109.381 59.6764 109.008 59.2178 108.752C58.7698 108.485 58.2738 108.352 57.7298 108.352C57.1858 108.352 56.6898 108.48 56.2418 108.736C55.7938 108.992 55.4364 109.365 55.1698 109.856C54.9031 110.347 54.7698 110.923 54.7698 111.584C54.7698 112.256 54.9031 112.843 55.1698 113.344C55.4364 113.835 55.7938 114.213 56.2418 114.48C56.6898 114.736 57.1858 114.864 57.7298 114.864C58.2738 114.864 58.7698 114.736 59.2178 114.48C59.6764 114.213 60.0391 113.835 60.3058 113.344C60.5724 112.843 60.7058 112.261 60.7058 111.6ZM66.4143 108.432V113.6C66.4143 114.027 66.5049 114.331 66.6863 114.512C66.8676 114.683 67.1823 114.768 67.6302 114.768H68.7023V116H67.3903C66.5796 116 65.9716 115.813 65.5663 115.44C65.1609 115.067 64.9583 114.453 64.9583 113.6V108.432H63.8223V107.232H64.9583V105.024H66.4143V107.232H68.7023V108.432H66.4143ZM77.836 116.144C77.164 116.144 76.5613 116.032 76.028 115.808C75.4947 115.573 75.0733 115.253 74.764 114.848C74.4547 114.432 74.284 113.957 74.252 113.424H75.756C75.7987 113.861 76.0013 114.219 76.364 114.496C76.7373 114.773 77.2227 114.912 77.82 114.912C78.3747 114.912 78.812 114.789 79.132 114.544C79.452 114.299 79.612 113.989 79.612 113.616C79.612 113.232 79.4413 112.949 79.1 112.768C78.7587 112.576 78.2307 112.389 77.516 112.208C76.8653 112.037 76.332 111.867 75.916 111.696C75.5107 111.515 75.1587 111.253 74.86 110.912C74.572 110.56 74.428 110.101 74.428 109.536C74.428 109.088 74.5613 108.677 74.828 108.304C75.0947 107.931 75.4733 107.637 75.964 107.424C76.4547 107.2 77.0147 107.088 77.644 107.088C78.6147 107.088 79.3987 107.333 79.996 107.824C80.5933 108.315 80.9133 108.987 80.956 109.84H79.5C79.468 109.381 79.2813 109.013 78.94 108.736C78.6093 108.459 78.1613 108.32 77.596 108.32C77.0733 108.32 76.6573 108.432 76.348 108.656C76.0387 108.88 75.884 109.173 75.884 109.536C75.884 109.824 75.9747 110.064 76.156 110.256C76.348 110.437 76.5827 110.587 76.86 110.704C77.148 110.811 77.5427 110.933 78.044 111.072C78.6733 111.243 79.1853 111.413 79.58 111.584C79.9747 111.744 80.3107 111.989 80.588 112.32C80.876 112.651 81.0253 113.083 81.036 113.616C81.036 114.096 80.9027 114.528 80.636 114.912C80.3693 115.296 79.9907 115.6 79.5 115.824C79.02 116.037 78.4653 116.144 77.836 116.144ZM90.8674 107.232V116H89.4114V114.704C89.134 115.152 88.7447 115.504 88.2434 115.76C87.7527 116.005 87.2087 116.128 86.6114 116.128C85.9287 116.128 85.3154 115.989 84.7714 115.712C84.2274 115.424 83.7954 114.997 83.4754 114.432C83.166 113.867 83.0114 113.179 83.0114 112.368V107.232H84.4514V112.176C84.4514 113.04 84.67 113.707 85.1074 114.176C85.5447 114.635 86.142 114.864 86.8994 114.864C87.678 114.864 88.2914 114.624 88.7394 114.144C89.1874 113.664 89.4114 112.965 89.4114 112.048V107.232H90.8674ZM94.7818 108.848C95.0698 108.347 95.4964 107.931 96.0618 107.6C96.6378 107.259 97.3044 107.088 98.0618 107.088C98.8404 107.088 99.5444 107.275 100.174 107.648C100.814 108.021 101.315 108.549 101.678 109.232C102.04 109.904 102.222 110.688 102.222 111.584C102.222 112.469 102.04 113.259 101.678 113.952C101.315 114.645 100.814 115.184 100.174 115.568C99.5444 115.952 98.8404 116.144 98.0618 116.144C97.3151 116.144 96.6538 115.979 96.0778 115.648C95.5124 115.307 95.0804 114.885 94.7818 114.384V120.16H93.3258V107.232H94.7818V108.848ZM100.734 111.584C100.734 110.923 100.6 110.347 100.334 109.856C100.067 109.365 99.7044 108.992 99.2458 108.736C98.7978 108.48 98.3018 108.352 97.7578 108.352C97.2244 108.352 96.7284 108.485 96.2698 108.752C95.8218 109.008 95.4591 109.387 95.1818 109.888C94.9151 110.379 94.7818 110.949 94.7818 111.6C94.7818 112.261 94.9151 112.843 95.1818 113.344C95.4591 113.835 95.8218 114.213 96.2698 114.48C96.7284 114.736 97.2244 114.864 97.7578 114.864C98.3018 114.864 98.7978 114.736 99.2458 114.48C99.7044 114.213 100.067 113.835 100.334 113.344C100.6 112.843 100.734 112.256 100.734 111.584ZM105.594 108.848C105.882 108.347 106.309 107.931 106.874 107.6C107.45 107.259 108.117 107.088 108.874 107.088C109.653 107.088 110.357 107.275 110.986 107.648C111.626 108.021 112.128 108.549 112.49 109.232C112.853 109.904 113.034 110.688 113.034 111.584C113.034 112.469 112.853 113.259 112.49 113.952C112.128 114.645 111.626 115.184 110.986 115.568C110.357 115.952 109.653 116.144 108.874 116.144C108.128 116.144 107.466 115.979 106.89 115.648C106.325 115.307 105.893 114.885 105.594 114.384V120.16H104.138V107.232H105.594V108.848ZM111.546 111.584C111.546 110.923 111.413 110.347 111.146 109.856C110.88 109.365 110.517 108.992 110.058 108.736C109.61 108.48 109.114 108.352 108.57 108.352C108.037 108.352 107.541 108.485 107.082 108.752C106.634 109.008 106.272 109.387 105.994 109.888C105.728 110.379 105.594 110.949 105.594 111.6C105.594 112.261 105.728 112.843 105.994 113.344C106.272 113.835 106.634 114.213 107.082 114.48C107.541 114.736 108.037 114.864 108.57 114.864C109.114 114.864 109.61 114.736 110.058 114.48C110.517 114.213 110.88 113.835 111.146 113.344C111.413 112.843 111.546 112.256 111.546 111.584ZM118.775 116.144C117.953 116.144 117.207 115.957 116.535 115.584C115.873 115.211 115.351 114.683 114.967 114C114.593 113.307 114.407 112.507 114.407 111.6C114.407 110.704 114.599 109.915 114.983 109.232C115.377 108.539 115.911 108.011 116.583 107.648C117.255 107.275 118.007 107.088 118.839 107.088C119.671 107.088 120.423 107.275 121.095 107.648C121.767 108.011 122.295 108.533 122.679 109.216C123.073 109.899 123.271 110.693 123.271 111.6C123.271 112.507 123.068 113.307 122.663 114C122.268 114.683 121.729 115.211 121.047 115.584C120.364 115.957 119.607 116.144 118.775 116.144ZM118.775 114.864C119.297 114.864 119.788 114.741 120.247 114.496C120.705 114.251 121.073 113.883 121.351 113.392C121.639 112.901 121.783 112.304 121.783 111.6C121.783 110.896 121.644 110.299 121.367 109.808C121.089 109.317 120.727 108.955 120.279 108.72C119.831 108.475 119.345 108.352 118.823 108.352C118.289 108.352 117.799 108.475 117.351 108.72C116.913 108.955 116.561 109.317 116.295 109.808C116.028 110.299 115.895 110.896 115.895 111.6C115.895 112.315 116.023 112.917 116.279 113.408C116.545 113.899 116.897 114.267 117.335 114.512C117.772 114.747 118.252 114.864 118.775 114.864ZM126.641 108.656C126.897 108.155 127.26 107.765 127.729 107.488C128.209 107.211 128.79 107.072 129.473 107.072V108.576H129.089C127.457 108.576 126.641 109.461 126.641 111.232V116H125.185V107.232H126.641V108.656ZM132.93 108.432V113.6C132.93 114.027 133.021 114.331 133.202 114.512C133.383 114.683 133.698 114.768 134.146 114.768H135.218V116H133.906C133.095 116 132.487 115.813 132.082 115.44C131.677 115.067 131.474 114.453 131.474 113.6V108.432H130.338V107.232H131.474V105.024H132.93V107.232H135.218V108.432H132.93Z" fill="#282938"/>
<path d="M13.7767 110.237C14.5942 110.852 14.5701 112.087 13.729 112.669L3.85392 119.507C2.85908 120.196 1.5 119.484 1.5 118.274L1.5 104.01C1.5 102.773 2.91294 102.067 3.90155 102.811L13.7767 110.237Z" fill="#97DAAD" stroke="url(#paint2_linear_239_97)" stroke-width="3"/>
<path d="M36.288 164.112C35.2533 164.112 34.3093 163.872 33.456 163.392C32.6027 162.901 31.9253 162.224 31.424 161.36C30.9333 160.485 30.688 159.504 30.688 158.416C30.688 157.328 30.9333 156.352 31.424 155.488C31.9253 154.613 32.6027 153.936 33.456 153.456C34.3093 152.965 35.2533 152.72 36.288 152.72C37.3333 152.72 38.2827 152.965 39.136 153.456C39.9893 153.936 40.6613 154.608 41.152 155.472C41.6427 156.336 41.888 157.317 41.888 158.416C41.888 159.515 41.6427 160.496 41.152 161.36C40.6613 162.224 39.9893 162.901 39.136 163.392C38.2827 163.872 37.3333 164.112 36.288 164.112ZM36.288 162.848C37.0667 162.848 37.7653 162.667 38.384 162.304C39.0133 161.941 39.504 161.424 39.856 160.752C40.2187 160.08 40.4 159.301 40.4 158.416C40.4 157.52 40.2187 156.741 39.856 156.08C39.504 155.408 39.0187 154.891 38.4 154.528C37.7813 154.165 37.0773 153.984 36.288 153.984C35.4987 153.984 34.7947 154.165 34.176 154.528C33.5573 154.891 33.0667 155.408 32.704 156.08C32.352 156.741 32.176 157.52 32.176 158.416C32.176 159.301 32.352 160.08 32.704 160.752C33.0667 161.424 33.5573 161.941 34.176 162.304C34.8053 162.667 35.5093 162.848 36.288 162.848ZM45.2661 156.848C45.5541 156.347 45.9808 155.931 46.5461 155.6C47.1221 155.259 47.7888 155.088 48.5461 155.088C49.3248 155.088 50.0288 155.275 50.6581 155.648C51.2981 156.021 51.7995 156.549 52.1621 157.232C52.5248 157.904 52.7061 158.688 52.7061 159.584C52.7061 160.469 52.5248 161.259 52.1621 161.952C51.7995 162.645 51.2981 163.184 50.6581 163.568C50.0288 163.952 49.3248 164.144 48.5461 164.144C47.7995 164.144 47.1381 163.979 46.5621 163.648C45.9968 163.307 45.5648 162.885 45.2661 162.384V168.16H43.8101V155.232H45.2661V156.848ZM51.2181 159.584C51.2181 158.923 51.0848 158.347 50.8181 157.856C50.5515 157.365 50.1888 156.992 49.7301 156.736C49.2821 156.48 48.7861 156.352 48.2421 156.352C47.7088 156.352 47.2128 156.485 46.7541 156.752C46.3061 157.008 45.9435 157.387 45.6661 157.888C45.3995 158.379 45.2661 158.949 45.2661 159.6C45.2661 160.261 45.3995 160.843 45.6661 161.344C45.9435 161.835 46.3061 162.213 46.7541 162.48C47.2128 162.736 47.7088 162.864 48.2421 162.864C48.7861 162.864 49.2821 162.736 49.7301 162.48C50.1888 162.213 50.5515 161.835 50.8181 161.344C51.0848 160.843 51.2181 160.256 51.2181 159.584ZM56.3986 156.432V161.6C56.3986 162.027 56.4893 162.331 56.6706 162.512C56.852 162.683 57.1666 162.768 57.6146 162.768H58.6866V164H57.3746C56.564 164 55.956 163.813 55.5506 163.44C55.1453 163.067 54.9426 162.453 54.9426 161.6V156.432H53.8066V155.232H54.9426V153.024H56.3986V155.232H58.6866V156.432H56.3986ZM61.2028 153.808C60.9254 153.808 60.6908 153.712 60.4988 153.52C60.3068 153.328 60.2108 153.093 60.2108 152.816C60.2108 152.539 60.3068 152.304 60.4988 152.112C60.6908 151.92 60.9254 151.824 61.2028 151.824C61.4694 151.824 61.6934 151.92 61.8748 152.112C62.0668 152.304 62.1628 152.539 62.1628 152.816C62.1628 153.093 62.0668 153.328 61.8748 153.52C61.6934 153.712 61.4694 153.808 61.2028 153.808ZM61.9068 155.232V164H60.4508V155.232H61.9068ZM74.9323 155.072C75.6149 155.072 76.2229 155.216 76.7563 155.504C77.2896 155.781 77.7109 156.203 78.0203 156.768C78.3296 157.333 78.4843 158.021 78.4843 158.832V164H77.0443V159.04C77.0443 158.165 76.8256 157.499 76.3883 157.04C75.9616 156.571 75.3803 156.336 74.6443 156.336C73.8869 156.336 73.2843 156.581 72.8363 157.072C72.3883 157.552 72.1643 158.251 72.1643 159.168V164H70.7243V159.04C70.7243 158.165 70.5056 157.499 70.0683 157.04C69.6416 156.571 69.0603 156.336 68.3243 156.336C67.5669 156.336 66.9643 156.581 66.5163 157.072C66.0683 157.552 65.8443 158.251 65.8443 159.168V164H64.3883V155.232H65.8443V156.496C66.1323 156.037 66.5163 155.685 66.9963 155.44C67.4869 155.195 68.0256 155.072 68.6123 155.072C69.3483 155.072 69.9989 155.237 70.5643 155.568C71.1296 155.899 71.5509 156.384 71.8283 157.024C72.0736 156.405 72.4789 155.925 73.0443 155.584C73.6096 155.243 74.2389 155.072 74.9323 155.072ZM81.6246 153.808C81.3473 153.808 81.1126 153.712 80.9206 153.52C80.7286 153.328 80.6326 153.093 80.6326 152.816C80.6326 152.539 80.7286 152.304 80.9206 152.112C81.1126 151.92 81.3473 151.824 81.6246 151.824C81.8913 151.824 82.1153 151.92 82.2966 152.112C82.4886 152.304 82.5846 152.539 82.5846 152.816C82.5846 153.093 82.4886 153.328 82.2966 153.52C82.1153 153.712 81.8913 153.808 81.6246 153.808ZM82.3286 155.232V164H80.8726V155.232H82.3286ZM85.8981 162.8H90.2021V164H84.2341V162.8L88.4901 156.416H84.2661V155.232H90.1701V156.416L85.8981 162.8ZM100.091 159.28C100.091 159.557 100.075 159.851 100.043 160.16H93.0354C93.0887 161.024 93.382 161.701 93.9154 162.192C94.4594 162.672 95.1154 162.912 95.8834 162.912C96.5127 162.912 97.0354 162.768 97.4514 162.48C97.878 162.181 98.1767 161.787 98.3474 161.296H99.9154C99.6807 162.139 99.2114 162.827 98.5074 163.36C97.8034 163.883 96.9287 164.144 95.8834 164.144C95.0514 164.144 94.3047 163.957 93.6434 163.584C92.9927 163.211 92.4807 162.683 92.1074 162C91.734 161.307 91.5474 160.507 91.5474 159.6C91.5474 158.693 91.7287 157.899 92.0914 157.216C92.454 156.533 92.9607 156.011 93.6114 155.648C94.2727 155.275 95.03 155.088 95.8834 155.088C96.7154 155.088 97.4514 155.269 98.0914 155.632C98.7314 155.995 99.222 156.496 99.5634 157.136C99.9154 157.765 100.091 158.48 100.091 159.28ZM98.5874 158.976C98.5874 158.421 98.4647 157.947 98.2194 157.552C97.974 157.147 97.638 156.843 97.2114 156.64C96.7954 156.427 96.3314 156.32 95.8194 156.32C95.0834 156.32 94.454 156.555 93.9314 157.024C93.4194 157.493 93.126 158.144 93.0514 158.976H98.5874ZM110.631 155.072C111.292 155.072 111.89 155.216 112.423 155.504C112.956 155.781 113.372 156.203 113.671 156.768C113.98 157.333 114.135 158.021 114.135 158.832V164H112.695V159.04C112.695 158.165 112.476 157.499 112.039 157.04C111.602 156.571 111.004 156.336 110.247 156.336C109.479 156.336 108.866 156.576 108.407 157.056C107.959 157.536 107.735 158.235 107.735 159.152V164H106.279V152.16H107.735V156.48C108.023 156.032 108.418 155.685 108.919 155.44C109.431 155.195 110.002 155.072 110.631 155.072ZM115.969 159.584C115.969 158.688 116.151 157.904 116.513 157.232C116.876 156.549 117.372 156.021 118.001 155.648C118.641 155.275 119.351 155.088 120.129 155.088C120.897 155.088 121.564 155.253 122.129 155.584C122.695 155.915 123.116 156.331 123.393 156.832V155.232H124.865V164H123.393V162.368C123.105 162.88 122.673 163.307 122.097 163.648C121.532 163.979 120.871 164.144 120.113 164.144C119.335 164.144 118.631 163.952 118.001 163.568C117.372 163.184 116.876 162.645 116.513 161.952C116.151 161.259 115.969 160.469 115.969 159.584ZM123.393 159.6C123.393 158.939 123.26 158.363 122.993 157.872C122.727 157.381 122.364 157.008 121.905 156.752C121.457 156.485 120.961 156.352 120.417 156.352C119.873 156.352 119.377 156.48 118.929 156.736C118.481 156.992 118.124 157.365 117.857 157.856C117.591 158.347 117.457 158.923 117.457 159.584C117.457 160.256 117.591 160.843 117.857 161.344C118.124 161.835 118.481 162.213 118.929 162.48C119.377 162.736 119.873 162.864 120.417 162.864C120.961 162.864 121.457 162.736 121.905 162.48C122.364 162.213 122.727 161.835 122.993 161.344C123.26 160.843 123.393 160.261 123.393 159.6ZM130.43 164.144C129.758 164.144 129.155 164.032 128.622 163.808C128.088 163.573 127.667 163.253 127.358 162.848C127.048 162.432 126.878 161.957 126.846 161.424H128.35C128.392 161.861 128.595 162.219 128.958 162.496C129.331 162.773 129.816 162.912 130.414 162.912C130.968 162.912 131.406 162.789 131.726 162.544C132.046 162.299 132.206 161.989 132.206 161.616C132.206 161.232 132.035 160.949 131.694 160.768C131.352 160.576 130.824 160.389 130.11 160.208C129.459 160.037 128.926 159.867 128.51 159.696C128.104 159.515 127.752 159.253 127.454 158.912C127.166 158.56 127.022 158.101 127.022 157.536C127.022 157.088 127.155 156.677 127.422 156.304C127.688 155.931 128.067 155.637 128.558 155.424C129.048 155.2 129.608 155.088 130.238 155.088C131.208 155.088 131.992 155.333 132.59 155.824C133.187 156.315 133.507 156.987 133.55 157.84H132.094C132.062 157.381 131.875 157.013 131.534 156.736C131.203 156.459 130.755 156.32 130.19 156.32C129.667 156.32 129.251 156.432 128.942 156.656C128.632 156.88 128.478 157.173 128.478 157.536C128.478 157.824 128.568 158.064 128.75 158.256C128.942 158.437 129.176 158.587 129.454 158.704C129.742 158.811 130.136 158.933 130.638 159.072C131.267 159.243 131.779 159.413 132.174 159.584C132.568 159.744 132.904 159.989 133.182 160.32C133.47 160.651 133.619 161.083 133.63 161.616C133.63 162.096 133.496 162.528 133.23 162.912C132.963 163.296 132.584 163.6 132.094 163.824C131.614 164.037 131.059 164.144 130.43 164.144ZM140.037 155.072C140.698 155.072 141.296 155.216 141.829 155.504C142.362 155.781 142.778 156.203 143.077 156.768C143.386 157.333 143.541 158.021 143.541 158.832V164H142.101V159.04C142.101 158.165 141.882 157.499 141.445 157.04C141.008 156.571 140.41 156.336 139.653 156.336C138.885 156.336 138.272 156.576 137.813 157.056C137.365 157.536 137.141 158.235 137.141 159.152V164H135.685V152.16H137.141V156.48C137.429 156.032 137.824 155.685 138.325 155.44C138.837 155.195 139.408 155.072 140.037 155.072ZM147.696 156.432V161.6C147.696 162.027 147.786 162.331 147.968 162.512C148.149 162.683 148.464 162.768 148.911 162.768H149.984V164H148.672C147.861 164 147.253 163.813 146.848 163.44C146.442 163.067 146.24 162.453 146.24 161.6V156.432H145.104V155.232H146.24V153.024H147.696V155.232H149.984V156.432H147.696ZM151.204 159.584C151.204 158.688 151.385 157.904 151.748 157.232C152.11 156.549 152.606 156.021 153.236 155.648C153.876 155.275 154.585 155.088 155.364 155.088C156.132 155.088 156.798 155.253 157.364 155.584C157.929 155.915 158.35 156.331 158.628 156.832V155.232H160.1V164H158.628V162.368C158.34 162.88 157.908 163.307 157.332 163.648C156.766 163.979 156.105 164.144 155.348 164.144C154.569 164.144 153.865 163.952 153.236 163.568C152.606 163.184 152.11 162.645 151.748 161.952C151.385 161.259 151.204 160.469 151.204 159.584ZM158.628 159.6C158.628 158.939 158.494 158.363 158.228 157.872C157.961 157.381 157.598 157.008 157.14 156.752C156.692 156.485 156.196 156.352 155.652 156.352C155.108 156.352 154.612 156.48 154.164 156.736C153.716 156.992 153.358 157.365 153.092 157.856C152.825 158.347 152.692 158.923 152.692 159.584C152.692 160.256 152.825 160.843 153.092 161.344C153.358 161.835 153.716 162.213 154.164 162.48C154.612 162.736 155.108 162.864 155.652 162.864C156.196 162.864 156.692 162.736 157.14 162.48C157.598 162.213 157.961 161.835 158.228 161.344C158.494 160.843 158.628 160.261 158.628 159.6ZM166.176 155.088C166.933 155.088 167.595 155.253 168.16 155.584C168.736 155.915 169.163 156.331 169.44 156.832V155.232H170.912V164.192C170.912 164.992 170.741 165.701 170.4 166.32C170.059 166.949 169.568 167.44 168.928 167.792C168.299 168.144 167.563 168.32 166.72 168.32C165.568 168.32 164.608 168.048 163.84 167.504C163.072 166.96 162.619 166.219 162.48 165.28H163.92C164.08 165.813 164.411 166.24 164.912 166.56C165.413 166.891 166.016 167.056 166.72 167.056C167.52 167.056 168.171 166.805 168.672 166.304C169.184 165.803 169.44 165.099 169.44 164.192V162.352C169.152 162.864 168.725 163.291 168.16 163.632C167.595 163.973 166.933 164.144 166.176 164.144C165.397 164.144 164.688 163.952 164.048 163.568C163.419 163.184 162.923 162.645 162.56 161.952C162.197 161.259 162.016 160.469 162.016 159.584C162.016 158.688 162.197 157.904 162.56 157.232C162.923 156.549 163.419 156.021 164.048 155.648C164.688 155.275 165.397 155.088 166.176 155.088ZM169.44 159.6C169.44 158.939 169.307 158.363 169.04 157.872C168.773 157.381 168.411 157.008 167.952 156.752C167.504 156.485 167.008 156.352 166.464 156.352C165.92 156.352 165.424 156.48 164.976 156.736C164.528 156.992 164.171 157.365 163.904 157.856C163.637 158.347 163.504 158.923 163.504 159.584C163.504 160.256 163.637 160.843 163.904 161.344C164.171 161.835 164.528 162.213 164.976 162.48C165.424 162.736 165.92 162.864 166.464 162.864C167.008 162.864 167.504 162.736 167.952 162.48C168.411 162.213 168.773 161.835 169.04 161.344C169.307 160.843 169.44 160.261 169.44 159.6ZM176.477 164.144C175.805 164.144 175.202 164.032 174.669 163.808C174.135 163.573 173.714 163.253 173.405 162.848C173.095 162.432 172.925 161.957 172.893 161.424H174.397C174.439 161.861 174.642 162.219 175.005 162.496C175.378 162.773 175.863 162.912 176.461 162.912C177.015 162.912 177.453 162.789 177.773 162.544C178.093 162.299 178.253 161.989 178.253 161.616C178.253 161.232 178.082 160.949 177.741 160.768C177.399 160.576 176.871 160.389 176.157 160.208C175.506 160.037 174.973 159.867 174.557 159.696C174.151 159.515 173.799 159.253 173.501 158.912C173.213 158.56 173.069 158.101 173.069 157.536C173.069 157.088 173.202 156.677 173.469 156.304C173.735 155.931 174.114 155.637 174.605 155.424C175.095 155.2 175.655 155.088 176.285 155.088C177.255 155.088 178.039 155.333 178.637 155.824C179.234 156.315 179.554 156.987 179.597 157.84H178.141C178.109 157.381 177.922 157.013 177.581 156.736C177.25 156.459 176.802 156.32 176.237 156.32C175.714 156.32 175.298 156.432 174.989 156.656C174.679 156.88 174.525 157.173 174.525 157.536C174.525 157.824 174.615 158.064 174.797 158.256C174.989 158.437 175.223 158.587 175.501 158.704C175.789 158.811 176.183 158.933 176.685 159.072C177.314 159.243 177.826 159.413 178.221 159.584C178.615 159.744 178.951 159.989 179.229 160.32C179.517 160.651 179.666 161.083 179.677 161.616C179.677 162.096 179.543 162.528 179.277 162.912C179.01 163.296 178.631 163.6 178.141 163.824C177.661 164.037 177.106 164.144 176.477 164.144Z" fill="#282938"/>
<path d="M13.7767 158.237C14.5942 158.852 14.5701 160.087 13.729 160.669L3.85392 167.507C2.85908 168.196 1.5 167.484 1.5 166.274L1.5 152.01C1.5 150.773 2.91294 150.067 3.90155 150.811L13.7767 158.237Z" fill="#97DAAD" stroke="url(#paint3_linear_239_97)" stroke-width="3"/>
<path d="M32.656 200.848V207.904C32.656 208.896 32.896 209.632 33.376 210.112C33.8667 210.592 34.544 210.832 35.408 210.832C36.2613 210.832 36.928 210.592 37.408 210.112C37.8987 209.632 38.144 208.896 38.144 207.904V200.848H39.6V207.888C39.6 208.816 39.4133 209.6 39.04 210.24C38.6667 210.869 38.16 211.339 37.52 211.648C36.8907 211.957 36.1813 212.112 35.392 212.112C34.6027 212.112 33.888 211.957 33.248 211.648C32.6187 211.339 32.1173 210.869 31.744 210.24C31.3813 209.6 31.2 208.816 31.2 207.888V200.848H32.656ZM46.3009 203.072C47.3675 203.072 48.2315 203.397 48.8929 204.048C49.5542 204.688 49.8849 205.616 49.8849 206.832V212H48.4449V207.04C48.4449 206.165 48.2262 205.499 47.7889 205.04C47.3515 204.571 46.7542 204.336 45.9969 204.336C45.2289 204.336 44.6155 204.576 44.1569 205.056C43.7089 205.536 43.4849 206.235 43.4849 207.152V212H42.0289V203.232H43.4849V204.48C43.7729 204.032 44.1622 203.685 44.6529 203.44C45.1542 203.195 45.7035 203.072 46.3009 203.072ZM53.7193 200.16V212H52.2633V200.16H53.7193ZM56.9528 201.808C56.6754 201.808 56.4408 201.712 56.2488 201.52C56.0568 201.328 55.9608 201.093 55.9608 200.816C55.9608 200.539 56.0568 200.304 56.2488 200.112C56.4408 199.92 56.6754 199.824 56.9528 199.824C57.2194 199.824 57.4434 199.92 57.6248 200.112C57.8168 200.304 57.9128 200.539 57.9128 200.816C57.9128 201.093 57.8168 201.328 57.6248 201.52C57.4434 201.712 57.2194 201.808 56.9528 201.808ZM57.6568 203.232V212H56.2008V203.232H57.6568ZM70.6823 203.072C71.3649 203.072 71.9729 203.216 72.5063 203.504C73.0396 203.781 73.4609 204.203 73.7703 204.768C74.0796 205.333 74.2343 206.021 74.2343 206.832V212H72.7943V207.04C72.7943 206.165 72.5756 205.499 72.1383 205.04C71.7116 204.571 71.1303 204.336 70.3943 204.336C69.6369 204.336 69.0343 204.581 68.5863 205.072C68.1383 205.552 67.9143 206.251 67.9143 207.168V212H66.4743V207.04C66.4743 206.165 66.2556 205.499 65.8183 205.04C65.3916 204.571 64.8103 204.336 64.0743 204.336C63.3169 204.336 62.7143 204.581 62.2663 205.072C61.8183 205.552 61.5943 206.251 61.5943 207.168V212H60.1383V203.232H61.5943V204.496C61.8823 204.037 62.2663 203.685 62.7463 203.44C63.2369 203.195 63.7756 203.072 64.3623 203.072C65.0983 203.072 65.7489 203.237 66.3143 203.568C66.8796 203.899 67.3009 204.384 67.5783 205.024C67.8236 204.405 68.2289 203.925 68.7943 203.584C69.3596 203.243 69.9889 203.072 70.6823 203.072ZM77.3746 201.808C77.0973 201.808 76.8626 201.712 76.6706 201.52C76.4786 201.328 76.3826 201.093 76.3826 200.816C76.3826 200.539 76.4786 200.304 76.6706 200.112C76.8626 199.92 77.0973 199.824 77.3746 199.824C77.6413 199.824 77.8653 199.92 78.0466 200.112C78.2386 200.304 78.3346 200.539 78.3346 200.816C78.3346 201.093 78.2386 201.328 78.0466 201.52C77.8653 201.712 77.6413 201.808 77.3746 201.808ZM78.0786 203.232V212H76.6226V203.232H78.0786ZM82.3361 204.432V209.6C82.3361 210.027 82.4268 210.331 82.6081 210.512C82.7895 210.683 83.1041 210.768 83.5521 210.768H84.6241V212H83.3121C82.5015 212 81.8935 211.813 81.4881 211.44C81.0828 211.067 80.8801 210.453 80.8801 209.6V204.432H79.7441V203.232H80.8801V201.024H82.3361V203.232H84.6241V204.432H82.3361ZM94.3883 207.28C94.3883 207.557 94.3723 207.851 94.3403 208.16H87.3323C87.3856 209.024 87.6789 209.701 88.2123 210.192C88.7563 210.672 89.4123 210.912 90.1803 210.912C90.8096 210.912 91.3323 210.768 91.7483 210.48C92.1749 210.181 92.4736 209.787 92.6443 209.296H94.2123C93.9776 210.139 93.5083 210.827 92.8043 211.36C92.1003 211.883 91.2256 212.144 90.1803 212.144C89.3483 212.144 88.6016 211.957 87.9403 211.584C87.2896 211.211 86.7776 210.683 86.4043 210C86.0309 209.307 85.8443 208.507 85.8443 207.6C85.8443 206.693 86.0256 205.899 86.3883 205.216C86.7509 204.533 87.2576 204.011 87.9083 203.648C88.5696 203.275 89.3269 203.088 90.1803 203.088C91.0123 203.088 91.7483 203.269 92.3883 203.632C93.0283 203.995 93.5189 204.496 93.8603 205.136C94.2123 205.765 94.3883 206.48 94.3883 207.28ZM92.8843 206.976C92.8843 206.421 92.7616 205.947 92.5163 205.552C92.2709 205.147 91.9349 204.843 91.5083 204.64C91.0923 204.427 90.6283 204.32 90.1163 204.32C89.3803 204.32 88.7509 204.555 88.2283 205.024C87.7163 205.493 87.4229 206.144 87.3483 206.976H92.8843ZM95.7661 207.584C95.7661 206.688 95.9475 205.904 96.3101 205.232C96.6728 204.549 97.1688 204.021 97.7981 203.648C98.4381 203.275 99.1528 203.088 99.9421 203.088C100.625 203.088 101.259 203.248 101.846 203.568C102.433 203.877 102.881 204.288 103.19 204.8V200.16H104.662V212H103.19V210.352C102.902 210.875 102.475 211.307 101.91 211.648C101.345 211.979 100.683 212.144 99.9261 212.144C99.1475 212.144 98.4381 211.952 97.7981 211.568C97.1688 211.184 96.6728 210.645 96.3101 209.952C95.9475 209.259 95.7661 208.469 95.7661 207.584ZM103.19 207.6C103.19 206.939 103.057 206.363 102.79 205.872C102.523 205.381 102.161 205.008 101.702 204.752C101.254 204.485 100.758 204.352 100.214 204.352C99.6701 204.352 99.1741 204.48 98.7261 204.736C98.2781 204.992 97.9208 205.365 97.6541 205.856C97.3875 206.347 97.2541 206.923 97.2541 207.584C97.2541 208.256 97.3875 208.843 97.6541 209.344C97.9208 209.835 98.2781 210.213 98.7261 210.48C99.1741 210.736 99.6701 210.864 100.214 210.864C100.758 210.864 101.254 210.736 101.702 210.48C102.161 210.213 102.523 209.835 102.79 209.344C103.057 208.843 103.19 208.261 103.19 207.6ZM119.164 203.232V212H117.708V210.704C117.431 211.152 117.042 211.504 116.54 211.76C116.05 212.005 115.506 212.128 114.908 212.128C114.226 212.128 113.612 211.989 113.068 211.712C112.524 211.424 112.092 210.997 111.772 210.432C111.463 209.867 111.308 209.179 111.308 208.368V203.232H112.748V208.176C112.748 209.04 112.967 209.707 113.404 210.176C113.842 210.635 114.439 210.864 115.196 210.864C115.975 210.864 116.588 210.624 117.036 210.144C117.484 209.664 117.708 208.965 117.708 208.048V203.232H119.164ZM124.727 212.144C124.055 212.144 123.452 212.032 122.919 211.808C122.385 211.573 121.964 211.253 121.655 210.848C121.345 210.432 121.175 209.957 121.143 209.424H122.647C122.689 209.861 122.892 210.219 123.255 210.496C123.628 210.773 124.113 210.912 124.711 210.912C125.265 210.912 125.703 210.789 126.023 210.544C126.343 210.299 126.503 209.989 126.503 209.616C126.503 209.232 126.332 208.949 125.991 208.768C125.649 208.576 125.121 208.389 124.407 208.208C123.756 208.037 123.223 207.867 122.807 207.696C122.401 207.515 122.049 207.253 121.751 206.912C121.463 206.56 121.319 206.101 121.319 205.536C121.319 205.088 121.452 204.677 121.719 204.304C121.985 203.931 122.364 203.637 122.855 203.424C123.345 203.2 123.905 203.088 124.535 203.088C125.505 203.088 126.289 203.333 126.887 203.824C127.484 204.315 127.804 204.987 127.847 205.84H126.391C126.359 205.381 126.172 205.013 125.831 204.736C125.5 204.459 125.052 204.32 124.487 204.32C123.964 204.32 123.548 204.432 123.239 204.656C122.929 204.88 122.775 205.173 122.775 205.536C122.775 205.824 122.865 206.064 123.047 206.256C123.239 206.437 123.473 206.587 123.751 206.704C124.039 206.811 124.433 206.933 124.935 207.072C125.564 207.243 126.076 207.413 126.471 207.584C126.865 207.744 127.201 207.989 127.479 208.32C127.767 208.651 127.916 209.083 127.927 209.616C127.927 210.096 127.793 210.528 127.527 210.912C127.26 211.296 126.881 211.6 126.391 211.824C125.911 212.037 125.356 212.144 124.727 212.144ZM137.982 207.28C137.982 207.557 137.966 207.851 137.934 208.16H130.926C130.979 209.024 131.273 209.701 131.806 210.192C132.35 210.672 133.006 210.912 133.774 210.912C134.403 210.912 134.926 210.768 135.342 210.48C135.769 210.181 136.067 209.787 136.238 209.296H137.806C137.571 210.139 137.102 210.827 136.398 211.36C135.694 211.883 134.819 212.144 133.774 212.144C132.942 212.144 132.195 211.957 131.534 211.584C130.883 211.211 130.371 210.683 129.998 210C129.625 209.307 129.438 208.507 129.438 207.6C129.438 206.693 129.619 205.899 129.982 205.216C130.345 204.533 130.851 204.011 131.502 203.648C132.163 203.275 132.921 203.088 133.774 203.088C134.606 203.088 135.342 203.269 135.982 203.632C136.622 203.995 137.113 204.496 137.454 205.136C137.806 205.765 137.982 206.48 137.982 207.28ZM136.478 206.976C136.478 206.421 136.355 205.947 136.11 205.552C135.865 205.147 135.529 204.843 135.102 204.64C134.686 204.427 134.222 204.32 133.71 204.32C132.974 204.32 132.345 204.555 131.822 205.024C131.31 205.493 131.017 206.144 130.942 206.976H136.478ZM141.36 204.656C141.616 204.155 141.979 203.765 142.448 203.488C142.928 203.211 143.509 203.072 144.192 203.072V204.576H143.808C142.176 204.576 141.36 205.461 141.36 207.232V212H139.904V203.232H141.36V204.656ZM148.977 212.144C148.305 212.144 147.702 212.032 147.169 211.808C146.635 211.573 146.214 211.253 145.905 210.848C145.595 210.432 145.425 209.957 145.393 209.424H146.897C146.939 209.861 147.142 210.219 147.505 210.496C147.878 210.773 148.363 210.912 148.961 210.912C149.515 210.912 149.953 210.789 150.273 210.544C150.593 210.299 150.753 209.989 150.753 209.616C150.753 209.232 150.582 208.949 150.241 208.768C149.899 208.576 149.371 208.389 148.657 208.208C148.006 208.037 147.473 207.867 147.057 207.696C146.651 207.515 146.299 207.253 146.001 206.912C145.713 206.56 145.569 206.101 145.569 205.536C145.569 205.088 145.702 204.677 145.969 204.304C146.235 203.931 146.614 203.637 147.105 203.424C147.595 203.2 148.155 203.088 148.785 203.088C149.755 203.088 150.539 203.333 151.137 203.824C151.734 204.315 152.054 204.987 152.097 205.84H150.641C150.609 205.381 150.422 205.013 150.081 204.736C149.75 204.459 149.302 204.32 148.737 204.32C148.214 204.32 147.798 204.432 147.489 204.656C147.179 204.88 147.025 205.173 147.025 205.536C147.025 205.824 147.115 206.064 147.297 206.256C147.489 206.437 147.723 206.587 148.001 206.704C148.289 206.811 148.683 206.933 149.185 207.072C149.814 207.243 150.326 207.413 150.721 207.584C151.115 207.744 151.451 207.989 151.729 208.32C152.017 208.651 152.166 209.083 152.177 209.616C152.177 210.096 152.043 210.528 151.777 210.912C151.51 211.296 151.131 211.6 150.641 211.824C150.161 212.037 149.606 212.144 148.977 212.144Z" fill="#282938"/>
<path d="M13.7767 206.237C14.5942 206.852 14.5701 208.087 13.729 208.669L3.85392 215.507C2.85908 216.196 1.5 215.484 1.5 214.274L1.5 200.01C1.5 198.773 2.91294 198.067 3.90155 198.811L13.7767 206.237Z" fill="#97DAAD" stroke="url(#paint4_linear_239_97)" stroke-width="3"/>
<path d="M37.824 257.52H32.96L32.064 260H30.528L34.56 248.912H36.24L40.256 260H38.72L37.824 257.52ZM37.408 256.336L35.392 250.704L33.376 256.336H37.408ZM45.1173 260.144C44.4453 260.144 43.8426 260.032 43.3093 259.808C42.7759 259.573 42.3546 259.253 42.0453 258.848C41.7359 258.432 41.5653 257.957 41.5333 257.424H43.0373C43.0799 257.861 43.2826 258.219 43.6453 258.496C44.0186 258.773 44.5039 258.912 45.1013 258.912C45.6559 258.912 46.0933 258.789 46.4133 258.544C46.7333 258.299 46.8933 257.989 46.8933 257.616C46.8933 257.232 46.7226 256.949 46.3813 256.768C46.0399 256.576 45.5119 256.389 44.7973 256.208C44.1466 256.037 43.6133 255.867 43.1973 255.696C42.7919 255.515 42.4399 255.253 42.1413 254.912C41.8533 254.56 41.7093 254.101 41.7093 253.536C41.7093 253.088 41.8426 252.677 42.1093 252.304C42.3759 251.931 42.7546 251.637 43.2453 251.424C43.7359 251.2 44.2959 251.088 44.9253 251.088C45.8959 251.088 46.6799 251.333 47.2773 251.824C47.8746 252.315 48.1946 252.987 48.2373 253.84H46.7813C46.7493 253.381 46.5626 253.013 46.2213 252.736C45.8906 252.459 45.4426 252.32 44.8773 252.32C44.3546 252.32 43.9386 252.432 43.6293 252.656C43.3199 252.88 43.1653 253.173 43.1653 253.536C43.1653 253.824 43.2559 254.064 43.4373 254.256C43.6293 254.437 43.8639 254.587 44.1413 254.704C44.4293 254.811 44.8239 254.933 45.3253 255.072C45.9546 255.243 46.4666 255.413 46.8613 255.584C47.2559 255.744 47.5919 255.989 47.8693 256.32C48.1573 256.651 48.3066 257.083 48.3173 257.616C48.3173 258.096 48.1839 258.528 47.9173 258.912C47.6506 259.296 47.2719 259.6 46.7813 259.824C46.3013 260.037 45.7466 260.144 45.1173 260.144ZM53.4766 260.144C52.8046 260.144 52.202 260.032 51.6686 259.808C51.1353 259.573 50.714 259.253 50.4046 258.848C50.0953 258.432 49.9246 257.957 49.8926 257.424H51.3966C51.4393 257.861 51.642 258.219 52.0046 258.496C52.378 258.773 52.8633 258.912 53.4606 258.912C54.0153 258.912 54.4526 258.789 54.7726 258.544C55.0926 258.299 55.2526 257.989 55.2526 257.616C55.2526 257.232 55.082 256.949 54.7406 256.768C54.3993 256.576 53.8713 256.389 53.1566 256.208C52.506 256.037 51.9726 255.867 51.5566 255.696C51.1513 255.515 50.7993 255.253 50.5006 254.912C50.2126 254.56 50.0686 254.101 50.0686 253.536C50.0686 253.088 50.202 252.677 50.4686 252.304C50.7353 251.931 51.114 251.637 51.6046 251.424C52.0953 251.2 52.6553 251.088 53.2846 251.088C54.2553 251.088 55.0393 251.333 55.6366 251.824C56.234 252.315 56.554 252.987 56.5966 253.84H55.1406C55.1086 253.381 54.922 253.013 54.5806 252.736C54.25 252.459 53.802 252.32 53.2366 252.32C52.714 252.32 52.298 252.432 51.9886 252.656C51.6793 252.88 51.5246 253.173 51.5246 253.536C51.5246 253.824 51.6153 254.064 51.7966 254.256C51.9886 254.437 52.2233 254.587 52.5006 254.704C52.7886 254.811 53.1833 254.933 53.6846 255.072C54.314 255.243 54.826 255.413 55.2206 255.584C55.6153 255.744 55.9513 255.989 56.2286 256.32C56.5166 256.651 56.666 257.083 56.6766 257.616C56.6766 258.096 56.5433 258.528 56.2766 258.912C56.01 259.296 55.6313 259.6 55.1406 259.824C54.6606 260.037 54.106 260.144 53.4766 260.144ZM59.484 249.808C59.2067 249.808 58.972 249.712 58.78 249.52C58.588 249.328 58.492 249.093 58.492 248.816C58.492 248.539 58.588 248.304 58.78 248.112C58.972 247.92 59.2067 247.824 59.484 247.824C59.7507 247.824 59.9747 247.92 60.156 248.112C60.348 248.304 60.444 248.539 60.444 248.816C60.444 249.093 60.348 249.328 60.156 249.52C59.9747 249.712 59.7507 249.808 59.484 249.808ZM60.188 251.232V260H58.732V251.232H60.188ZM65.7735 260.144C65.1015 260.144 64.4988 260.032 63.9655 259.808C63.4322 259.573 63.0108 259.253 62.7015 258.848C62.3922 258.432 62.2215 257.957 62.1895 257.424H63.6935C63.7362 257.861 63.9388 258.219 64.3015 258.496C64.6748 258.773 65.1602 258.912 65.7575 258.912C66.3122 258.912 66.7495 258.789 67.0695 258.544C67.3895 258.299 67.5495 257.989 67.5495 257.616C67.5495 257.232 67.3788 256.949 67.0375 256.768C66.6962 256.576 66.1682 256.389 65.4535 256.208C64.8028 256.037 64.2695 255.867 63.8535 255.696C63.4482 255.515 63.0962 255.253 62.7975 254.912C62.5095 254.56 62.3655 254.101 62.3655 253.536C62.3655 253.088 62.4988 252.677 62.7655 252.304C63.0322 251.931 63.4108 251.637 63.9015 251.424C64.3922 251.2 64.9522 251.088 65.5815 251.088C66.5522 251.088 67.3362 251.333 67.9335 251.824C68.5308 252.315 68.8508 252.987 68.8935 253.84H67.4375C67.4055 253.381 67.2188 253.013 66.8775 252.736C66.5468 252.459 66.0988 252.32 65.5335 252.32C65.0108 252.32 64.5948 252.432 64.2855 252.656C63.9762 252.88 63.8215 253.173 63.8215 253.536C63.8215 253.824 63.9122 254.064 64.0935 254.256C64.2855 254.437 64.5202 254.587 64.7975 254.704C65.0855 254.811 65.4802 254.933 65.9815 255.072C66.6108 255.243 67.1228 255.413 67.5175 255.584C67.9122 255.744 68.2482 255.989 68.5255 256.32C68.8135 256.651 68.9628 257.083 68.9735 257.616C68.9735 258.096 68.8402 258.528 68.5735 258.912C68.3068 259.296 67.9282 259.6 67.4375 259.824C66.9575 260.037 66.4028 260.144 65.7735 260.144ZM72.8049 252.432V257.6C72.8049 258.027 72.8955 258.331 73.0769 258.512C73.2582 258.683 73.5729 258.768 74.0209 258.768H75.0929V260H73.7809C72.9702 260 72.3622 259.813 71.9569 259.44C71.5515 259.067 71.3489 258.453 71.3489 257.6V252.432H70.2129V251.232H71.3489V249.024H72.8049V251.232H75.0929V252.432H72.8049ZM80.5786 255.584C80.5786 254.688 80.76 253.904 81.1226 253.232C81.4853 252.549 81.9813 252.021 82.6106 251.648C83.2506 251.275 83.96 251.088 84.7386 251.088C85.5066 251.088 86.1733 251.253 86.7386 251.584C87.304 251.915 87.7253 252.331 88.0026 252.832V251.232H89.4746V260H88.0026V258.368C87.7146 258.88 87.2826 259.307 86.7066 259.648C86.1413 259.979 85.48 260.144 84.7226 260.144C83.944 260.144 83.24 259.952 82.6106 259.568C81.9813 259.184 81.4853 258.645 81.1226 257.952C80.76 257.259 80.5786 256.469 80.5786 255.584ZM88.0026 255.6C88.0026 254.939 87.8693 254.363 87.6026 253.872C87.336 253.381 86.9733 253.008 86.5146 252.752C86.0666 252.485 85.5706 252.352 85.0266 252.352C84.4826 252.352 83.9866 252.48 83.5386 252.736C83.0906 252.992 82.7333 253.365 82.4666 253.856C82.2 254.347 82.0666 254.923 82.0666 255.584C82.0666 256.256 82.2 256.843 82.4666 257.344C82.7333 257.835 83.0906 258.213 83.5386 258.48C83.9866 258.736 84.4826 258.864 85.0266 258.864C85.5706 258.864 86.0666 258.736 86.5146 258.48C86.9733 258.213 87.336 257.835 87.6026 257.344C87.8693 256.843 88.0026 256.261 88.0026 255.6ZM96.2071 251.072C97.2738 251.072 98.1378 251.397 98.7991 252.048C99.4605 252.688 99.7911 253.616 99.7911 254.832V260H98.3511V255.04C98.3511 254.165 98.1325 253.499 97.6951 253.04C97.2578 252.571 96.6605 252.336 95.9031 252.336C95.1351 252.336 94.5218 252.576 94.0631 253.056C93.6151 253.536 93.3911 254.235 93.3911 255.152V260H91.9351V251.232H93.3911V252.48C93.6791 252.032 94.0685 251.685 94.5591 251.44C95.0605 251.195 95.6098 251.072 96.2071 251.072ZM101.626 255.584C101.626 254.688 101.807 253.904 102.17 253.232C102.532 252.549 103.028 252.021 103.658 251.648C104.298 251.275 105.012 251.088 105.802 251.088C106.484 251.088 107.119 251.248 107.706 251.568C108.292 251.877 108.74 252.288 109.05 252.8V248.16H110.522V260H109.05V258.352C108.762 258.875 108.335 259.307 107.77 259.648C107.204 259.979 106.543 260.144 105.786 260.144C105.007 260.144 104.298 259.952 103.658 259.568C103.028 259.184 102.532 258.645 102.17 257.952C101.807 257.259 101.626 256.469 101.626 255.584ZM109.05 255.6C109.05 254.939 108.916 254.363 108.65 253.872C108.383 253.381 108.02 253.008 107.562 252.752C107.114 252.485 106.618 252.352 106.074 252.352C105.53 252.352 105.034 252.48 104.586 252.736C104.138 252.992 103.78 253.365 103.514 253.856C103.247 254.347 103.114 254.923 103.114 255.584C103.114 256.256 103.247 256.843 103.514 257.344C103.78 257.835 104.138 258.213 104.586 258.48C105.034 258.736 105.53 258.864 106.074 258.864C106.618 258.864 107.114 258.736 107.562 258.48C108.02 258.213 108.383 257.835 108.65 257.344C108.916 256.843 109.05 256.261 109.05 255.6ZM125.84 248.848V260H124.384V254.944H118.704V260H117.248V248.848H118.704V253.744H124.384V248.848H125.84ZM136.326 255.28C136.326 255.557 136.31 255.851 136.278 256.16H129.27C129.323 257.024 129.616 257.701 130.15 258.192C130.694 258.672 131.35 258.912 132.118 258.912C132.747 258.912 133.27 258.768 133.686 258.48C134.112 258.181 134.411 257.787 134.582 257.296H136.15C135.915 258.139 135.446 258.827 134.742 259.36C134.038 259.883 133.163 260.144 132.118 260.144C131.286 260.144 130.539 259.957 129.878 259.584C129.227 259.211 128.715 258.683 128.342 258C127.968 257.307 127.782 256.507 127.782 255.6C127.782 254.693 127.963 253.899 128.326 253.216C128.688 252.533 129.195 252.011 129.846 251.648C130.507 251.275 131.264 251.088 132.118 251.088C132.95 251.088 133.686 251.269 134.326 251.632C134.966 251.995 135.456 252.496 135.798 253.136C136.15 253.765 136.326 254.48 136.326 255.28ZM134.822 254.976C134.822 254.421 134.699 253.947 134.454 253.552C134.208 253.147 133.872 252.843 133.446 252.64C133.03 252.427 132.566 252.32 132.054 252.32C131.318 252.32 130.688 252.555 130.166 253.024C129.654 253.493 129.36 254.144 129.286 254.976H134.822ZM139.704 248.16V260H138.248V248.16H139.704ZM143.641 252.848C143.929 252.347 144.356 251.931 144.921 251.6C145.497 251.259 146.164 251.088 146.921 251.088C147.7 251.088 148.404 251.275 149.033 251.648C149.673 252.021 150.174 252.549 150.537 253.232C150.9 253.904 151.081 254.688 151.081 255.584C151.081 256.469 150.9 257.259 150.537 257.952C150.174 258.645 149.673 259.184 149.033 259.568C148.404 259.952 147.7 260.144 146.921 260.144C146.174 260.144 145.513 259.979 144.937 259.648C144.372 259.307 143.94 258.885 143.641 258.384V264.16H142.185V251.232H143.641V252.848ZM149.593 255.584C149.593 254.923 149.46 254.347 149.193 253.856C148.926 253.365 148.564 252.992 148.105 252.736C147.657 252.48 147.161 252.352 146.617 252.352C146.084 252.352 145.588 252.485 145.129 252.752C144.681 253.008 144.318 253.387 144.041 253.888C143.774 254.379 143.641 254.949 143.641 255.6C143.641 256.261 143.774 256.843 144.041 257.344C144.318 257.835 144.681 258.213 145.129 258.48C145.588 258.736 146.084 258.864 146.617 258.864C147.161 258.864 147.657 258.736 148.105 258.48C148.564 258.213 148.926 257.835 149.193 257.344C149.46 256.843 149.593 256.256 149.593 255.584Z" fill="#282938"/>
<path d="M13.7767 254.237C14.5942 254.852 14.5701 256.087 13.729 256.669L3.85392 263.507C2.85908 264.196 1.5 263.484 1.5 262.274L1.5 248.01C1.5 246.773 2.91294 246.067 3.90155 246.811L13.7767 254.237Z" fill="#97DAAD" stroke="url(#paint5_linear_239_97)" stroke-width="3"/>
<defs>
<linearGradient id="paint0_linear_239_97" x1="-4.84615" y1="-12" x2="11.6069" y2="16.3225" gradientUnits="userSpaceOnUse">
<stop stop-color="white"/>
<stop offset="1" stop-color="white" stop-opacity="0"/>
</linearGradient>
<linearGradient id="paint1_linear_239_97" x1="-4.84615" y1="36" x2="11.6069" y2="64.3225" gradientUnits="userSpaceOnUse">
<stop stop-color="white"/>
<stop offset="1" stop-color="white" stop-opacity="0"/>
</linearGradient>
<linearGradient id="paint2_linear_239_97" x1="-4.84615" y1="84" x2="11.6069" y2="112.323" gradientUnits="userSpaceOnUse">
<stop stop-color="white"/>
<stop offset="1" stop-color="white" stop-opacity="0"/>
</linearGradient>
<linearGradient id="paint3_linear_239_97" x1="-4.84615" y1="132" x2="11.6069" y2="160.323" gradientUnits="userSpaceOnUse">
<stop stop-color="white"/>
<stop offset="1" stop-color="white" stop-opacity="0"/>
</linearGradient>
<linearGradient id="paint4_linear_239_97" x1="-4.84615" y1="180" x2="11.6069" y2="208.323" gradientUnits="userSpaceOnUse">
<stop stop-color="white"/>
<stop offset="1" stop-color="white" stop-opacity="0"/>
</linearGradient>
<linearGradient id="paint5_linear_239_97" x1="-4.84615" y1="228" x2="11.6069" y2="256.323" gradientUnits="userSpaceOnUse">
<stop stop-color="white"/>
<stop offset="1" stop-color="white" stop-opacity="0"/>
</linearGradient>
</defs>
</svg>
